<?xml version="1.0" encoding="UTF-8"?>
<svg id="Layer_1" data-name="Layer 1" xmlns="http://www.w3.org/2000/svg" viewBox="0 0 500 500">
  <defs>
    <style>
      .cls-1 {
        fill: #fff;
      }

      .cls-2 {
        fill: #f2e911;
      }

      .cls-3 {
        fill: #8e5432;
      }

      .cls-4 {
        fill: #ffd794;
      }
    </style>
  </defs>
  <rect class="cls-1" width="500" height="500"/>
  <g>
    <path class="cls-3" d="M153.16,197.94v12.15c-1.8-4.21-4.94-7.6-9.38-10.16-4.44-2.56-9.38-3.83-14.83-3.83-11,0-19.88,4.02-26.66,12.04-6.77,8.04-10.16,19-10.16,32.89s3.41,24.76,10.24,32.93c6.81,8.15,15.69,12.21,26.58,12.21,5.34,0,10.26-1.26,14.77-3.75,4.48-2.51,7.65-5.8,9.45-9.87v11.48h29.47v-86.09h-29.47ZM149.71,256.42c-3.04,3.73-7,5.59-11.86,5.59s-8.76-1.89-11.86-5.63c-3.08-3.75-4.63-8.92-4.63-15.5s1.55-11.5,4.63-15.21c3.1-3.71,7.04-5.55,11.86-5.55s8.76,1.82,11.81,5.51c3.08,3.69,4.61,8.78,4.61,15.25s-1.51,11.81-4.57,15.54Z"/>
    <path class="cls-3" d="M191.47,182.86v15.08l14.77.15,14.77-.15v-21.43l-29.53,6.35ZM241.03,262.16c-3.18.48-5.49.73-6.91.73-4.71,0-8.09-1.15-10.1-3.5-2.01-2.32-3.02-6.24-3.02-11.75v-27.82h-29.53v29.95c0,12.82,3.02,21.97,9.07,27.48,6.03,5.49,15.42,8.23,28.13,8.23,6.37,0,11.77-.52,16.19-1.61l-3.83-21.72Z"/>
    <path class="cls-2" d="M263.37,198.09h-.02l.08.21-.06-.21Z"/>
    <path class="cls-4" d="M378.4,197.94v12.15c-1.8-4.21-4.94-7.6-9.38-10.16-4.44-2.56-9.38-3.83-14.83-3.83-11,0-19.9,4.02-26.66,12.04-.5.61-1.01,1.24-1.45,1.86l4.67-11.92h-32.11l-17.59,54.42-17.62-54.21-.08-.21-.06-.15h-42.27l-14.77.15-14.77-.15h-8.84v21.89h57.29l25.58,64.2-11.77,28.07h32.26l32.15-81.9c-.52,3.37-.78,7-.78,10.83,0,13.8,3.41,24.76,10.24,32.93,6.81,8.15,15.67,12.21,26.58,12.21,5.34,0,10.26-1.26,14.77-3.75,4.48-2.51,7.65-5.8,9.45-9.87v11.48h29.47v-86.09h-29.47ZM374.95,256.42c-3.04,3.73-7,5.59-11.86,5.59s-8.76-1.89-11.86-5.63c-3.1-3.75-4.63-8.92-4.63-15.5s1.53-11.5,4.63-15.21c3.1-3.71,7.04-5.55,11.86-5.55s8.76,1.82,11.81,5.51c3.08,3.69,4.61,8.78,4.61,15.25s-1.53,11.81-4.57,15.54Z"/>
    <g>
      <path class="cls-3" d="M310.15,312.35c-1.37,0-2.64-.22-3.78-.67-1.15-.44-2.15-1.08-3-1.9-.86-.82-1.52-1.78-1.99-2.87s-.7-2.3-.7-3.62.23-2.53.7-3.62c.47-1.09,1.13-2.04,2-2.87s1.87-1.45,3.02-1.9c1.15-.44,2.43-.67,3.83-.67s2.81.24,4.01.73c1.2.49,2.21,1.2,3.03,2.14l-2.06,2.01c-.69-.69-1.43-1.19-2.22-1.52-.8-.33-1.67-.49-2.63-.49s-1.8.15-2.58.45-1.45.73-2.02,1.28c-.57.55-1.01,1.21-1.33,1.96-.32.75-.48,1.58-.48,2.49s.16,1.71.48,2.48c.32.76.76,1.42,1.33,1.97.57.55,1.24.98,2.01,1.28.77.3,1.62.45,2.56.45.87,0,1.71-.14,2.53-.42.81-.28,1.59-.74,2.33-1.39l1.83,2.44c-.91.74-1.96,1.29-3.17,1.67-1.21.38-2.44.57-3.7.57ZM317.01,310.11l-3.07-.43v-6.56h3.07v6.99Z"/>
      <path class="cls-3" d="M321.33,312.1v-17.59h3.27v14.83h9.2v2.76h-12.47Z"/>
      <path class="cls-3" d="M344.31,312.35c-1.36,0-2.62-.23-3.78-.68-1.17-.45-2.17-1.09-3.03-1.91-.86-.82-1.52-1.78-1.99-2.88-.47-1.1-.7-2.29-.7-3.58s.23-2.51.7-3.61,1.13-2.05,1.99-2.87c.85-.81,1.86-1.45,3.02-1.9,1.16-.45,2.42-.68,3.8-.68s2.61.22,3.77.67c1.16.44,2.16,1.07,3,1.88.85.81,1.5,1.77,1.97,2.88.47,1.11.7,2.31.7,3.62s-.23,2.51-.7,3.61c-.47,1.1-1.13,2.06-1.97,2.88-.85.82-1.85,1.45-3,1.9-1.16.44-2.41.67-3.77.67ZM344.31,309.48c.89,0,1.71-.15,2.45-.45.75-.3,1.4-.73,1.95-1.28s.98-1.21,1.29-1.96c.31-.75.46-1.58.46-2.49s-.15-1.73-.45-2.49c-.3-.75-.73-1.41-1.29-1.96-.56-.55-1.21-.98-1.96-1.28-.75-.3-1.56-.45-2.45-.45s-1.71.15-2.48.45-1.42.73-1.97,1.29-.99,1.21-1.31,1.96c-.32.75-.48,1.57-.48,2.48s.16,1.71.48,2.46c.32.75.75,1.41,1.31,1.97.55.56,1.21.99,1.97,1.29s1.59.45,2.48.45Z"/>
      <path class="cls-3" d="M357.23,312.1v-17.59h8.27c2.09,0,3.7.42,4.8,1.24,1.11.83,1.66,1.94,1.66,3.33,0,.94-.22,1.74-.65,2.4-.44.66-1.02,1.17-1.75,1.53-.73.36-1.52.54-2.38.54l.45-.91c.99,0,1.88.18,2.67.54.79.36,1.41.88,1.86,1.57.45.69.68,1.54.68,2.56,0,1.51-.57,2.68-1.72,3.52s-2.85,1.26-5.12,1.26h-8.77ZM360.49,309.54h5.3c1.21,0,2.14-.2,2.79-.6.65-.4.98-1.05.98-1.94s-.33-1.51-.98-1.92c-.65-.41-1.58-.62-2.79-.62h-5.55v-2.54h4.88c1.12,0,1.99-.2,2.61-.6s.93-1,.93-1.81-.31-1.43-.93-1.83-1.49-.6-2.61-.6h-4.62v12.47Z"/>
      <path class="cls-3" d="M373.87,312.1l7.92-17.59h3.22l7.94,17.59h-3.44l-6.79-15.86h1.31l-6.81,15.86h-3.34ZM377.51,308.03l.91-2.56h9.48l.88,2.56h-11.26Z"/>
      <path class="cls-3" d="M395.18,312.1v-17.59h3.27v14.83h9.2v2.76h-12.47Z"/>
    </g>
  </g>
</svg>