<?xml version="1.0" encoding="UTF-8"?>
<svg id="Layer_1" data-name="Layer 1" xmlns="http://www.w3.org/2000/svg" viewBox="0 0 500 500">
  <defs>
    <style>
      .cls-1 {
        fill: #fff;
      }

      .cls-2 {
        fill: #f2e911;
      }

      .cls-3, .cls-4 {
        fill: #8e5432;
      }

      .cls-4 {
        font-family: Montserrat-SemiBold, Montserrat;
        font-size: 25.14px;
        font-variation-settings: 'wght' 600;
        font-weight: 600;
      }

      .cls-5 {
        fill: #ffd794;
      }

      .cls-6 {
        letter-spacing: -.01em;
      }
    </style>
  </defs>
  <rect class="cls-1" width="500" height="500"/>
  <g>
    <g>
      <path class="cls-3" d="M153.16,197.94v12.15c-1.8-4.21-4.94-7.6-9.38-10.16-4.44-2.56-9.38-3.83-14.83-3.83-11,0-19.88,4.02-26.66,12.04-6.77,8.04-10.16,19-10.16,32.89s3.41,24.76,10.24,32.93c6.81,8.15,15.69,12.21,26.58,12.21,5.34,0,10.26-1.26,14.77-3.75,4.48-2.51,7.65-5.8,9.45-9.87v11.48h29.47v-86.09h-29.47ZM149.71,256.42c-3.04,3.73-7,5.59-11.86,5.59s-8.76-1.89-11.86-5.63c-3.08-3.75-4.63-8.92-4.63-15.5s1.55-11.5,4.63-15.21c3.1-3.71,7.04-5.55,11.86-5.55s8.76,1.82,11.81,5.51c3.08,3.69,4.61,8.78,4.61,15.25s-1.51,11.81-4.57,15.54Z"/>
      <path class="cls-3" d="M191.47,182.86v15.08l14.77.15,14.77-.15v-21.43l-29.53,6.35ZM241.03,262.16c-3.18.48-5.49.73-6.91.73-4.71,0-8.09-1.15-10.1-3.5-2.01-2.32-3.02-6.24-3.02-11.75v-27.82h-29.53v29.95c0,12.82,3.02,21.97,9.07,27.48,6.03,5.49,15.42,8.23,28.13,8.23,6.37,0,11.77-.52,16.19-1.61l-3.83-21.72Z"/>
      <path class="cls-2" d="M263.37,198.09h-.02l.08.21-.06-.21Z"/>
      <path class="cls-5" d="M378.4,197.94v12.15c-1.8-4.21-4.94-7.6-9.38-10.16-4.44-2.56-9.38-3.83-14.83-3.83-11,0-19.9,4.02-26.66,12.04-.5.61-1.01,1.24-1.45,1.86l4.67-11.92h-32.11l-17.59,54.42-17.62-54.21-.08-.21-.06-.15h-42.27l-14.77.15-14.77-.15h-8.84v21.89h57.29l25.58,64.2-11.77,28.07h32.26l32.15-81.9c-.52,3.37-.78,7-.78,10.83,0,13.8,3.41,24.76,10.24,32.93,6.81,8.15,15.67,12.21,26.58,12.21,5.34,0,10.26-1.26,14.77-3.75,4.48-2.51,7.65-5.8,9.45-9.87v11.48h29.47v-86.09h-29.47ZM374.95,256.42c-3.04,3.73-7,5.59-11.86,5.59s-8.76-1.89-11.86-5.63c-3.1-3.75-4.63-8.92-4.63-15.5s1.53-11.5,4.63-15.21c3.1-3.71,7.04-5.55,11.86-5.55s8.76,1.82,11.81,5.51c3.08,3.69,4.61,8.78,4.61,15.25s-1.53,11.81-4.57,15.54Z"/>
    </g>
    <text class="cls-4" transform="translate(299.57 312.1)"><tspan x="0" y="0">G</tspan><tspan class="cls-6" x="19.4" y="0">L</tspan><tspan x="34.13" y="0">OBAL</tspan></text>
  </g>
</svg>